<mxfile host="Electron" modified="2023-06-03T09:30:03.350Z" agent="Mozilla/5.0 (Windows NT 10.0; Win64; x64) AppleWebKit/537.36 (KHTML, like Gecko) draw.io/21.2.8 Chrome/112.0.5615.165 Electron/24.2.0 Safari/537.36" etag="3pU6iY9T1oOFiifyR3oa" version="21.2.8" type="device">
  <diagram name="Страница 1" id="CQjAxuuFVsWfsr4KXCYh">
    <mxGraphModel dx="2053" dy="1188" grid="1" gridSize="10" guides="1" tooltips="1" connect="1" arrows="1" fold="1" page="1" pageScale="1" pageWidth="827" pageHeight="1169" math="0" shadow="0">
      <root>
        <mxCell id="0" />
        <mxCell id="1" parent="0" />
        <mxCell id="35-sww-V_7elQmEUT7xG-1" value="" style="swimlane;startSize=0;fontSize=16;" parent="1" vertex="1">
          <mxGeometry x="49" y="140" width="729" height="610" as="geometry" />
        </mxCell>
        <mxCell id="35-sww-V_7elQmEUT7xG-2" value="&lt;font style=&quot;font-size: 24px;&quot;&gt;Приложение&lt;/font&gt;" style="text;html=1;align=center;verticalAlign=middle;resizable=0;points=[];autosize=1;strokeColor=none;fillColor=none;fontSize=18;" parent="35-sww-V_7elQmEUT7xG-1" vertex="1">
          <mxGeometry x="285" y="3" width="160" height="40" as="geometry" />
        </mxCell>
        <mxCell id="35-sww-V_7elQmEUT7xG-8" style="edgeStyle=orthogonalEdgeStyle;rounded=0;orthogonalLoop=1;jettySize=auto;html=1;exitX=0.5;exitY=1;exitDx=0;exitDy=0;entryX=0.5;entryY=0;entryDx=0;entryDy=0;" parent="35-sww-V_7elQmEUT7xG-1" source="35-sww-V_7elQmEUT7xG-5" target="35-sww-V_7elQmEUT7xG-6" edge="1">
          <mxGeometry relative="1" as="geometry" />
        </mxCell>
        <mxCell id="35-sww-V_7elQmEUT7xG-5" value="&lt;font style=&quot;font-size: 18px;&quot;&gt;Модуль поиска источников света&lt;/font&gt;" style="rounded=0;whiteSpace=wrap;html=1;" parent="35-sww-V_7elQmEUT7xG-1" vertex="1">
          <mxGeometry x="270.5" y="230" width="200" height="100" as="geometry" />
        </mxCell>
        <mxCell id="35-sww-V_7elQmEUT7xG-9" style="edgeStyle=orthogonalEdgeStyle;rounded=0;orthogonalLoop=1;jettySize=auto;html=1;exitX=1;exitY=0.25;exitDx=0;exitDy=0;entryX=0;entryY=0.25;entryDx=0;entryDy=0;" parent="35-sww-V_7elQmEUT7xG-1" source="35-sww-V_7elQmEUT7xG-6" target="35-sww-V_7elQmEUT7xG-7" edge="1">
          <mxGeometry relative="1" as="geometry" />
        </mxCell>
        <mxCell id="35-sww-V_7elQmEUT7xG-15" style="edgeStyle=orthogonalEdgeStyle;rounded=0;orthogonalLoop=1;jettySize=auto;html=1;exitX=0.25;exitY=1;exitDx=0;exitDy=0;entryX=0.25;entryY=0;entryDx=0;entryDy=0;" parent="35-sww-V_7elQmEUT7xG-1" source="35-sww-V_7elQmEUT7xG-6" target="35-sww-V_7elQmEUT7xG-14" edge="1">
          <mxGeometry relative="1" as="geometry" />
        </mxCell>
        <mxCell id="35-sww-V_7elQmEUT7xG-6" value="&lt;font style=&quot;font-size: 18px;&quot;&gt;Модуль построения сцены и синтеза конечного изображения&lt;/font&gt;" style="rounded=0;whiteSpace=wrap;html=1;" parent="35-sww-V_7elQmEUT7xG-1" vertex="1">
          <mxGeometry x="270.5" y="365" width="200" height="100" as="geometry" />
        </mxCell>
        <mxCell id="35-sww-V_7elQmEUT7xG-10" style="edgeStyle=orthogonalEdgeStyle;rounded=0;orthogonalLoop=1;jettySize=auto;html=1;exitX=0;exitY=0.75;exitDx=0;exitDy=0;entryX=1;entryY=0.75;entryDx=0;entryDy=0;" parent="35-sww-V_7elQmEUT7xG-1" source="35-sww-V_7elQmEUT7xG-7" target="35-sww-V_7elQmEUT7xG-6" edge="1">
          <mxGeometry relative="1" as="geometry" />
        </mxCell>
        <mxCell id="35-sww-V_7elQmEUT7xG-7" value="&lt;font style=&quot;font-size: 18px;&quot;&gt;Модуль взаимодействия с моделями на сцене&lt;br&gt;&lt;/font&gt;" style="rounded=0;whiteSpace=wrap;html=1;" parent="35-sww-V_7elQmEUT7xG-1" vertex="1">
          <mxGeometry x="521.5" y="365" width="200" height="100" as="geometry" />
        </mxCell>
        <mxCell id="35-sww-V_7elQmEUT7xG-22" style="edgeStyle=orthogonalEdgeStyle;rounded=0;orthogonalLoop=1;jettySize=auto;html=1;exitX=0.5;exitY=1;exitDx=0;exitDy=0;entryX=0.5;entryY=0;entryDx=0;entryDy=0;" parent="35-sww-V_7elQmEUT7xG-1" source="35-sww-V_7elQmEUT7xG-12" target="35-sww-V_7elQmEUT7xG-5" edge="1">
          <mxGeometry relative="1" as="geometry" />
        </mxCell>
        <mxCell id="35-sww-V_7elQmEUT7xG-12" value="&lt;font style=&quot;font-size: 18px;&quot;&gt;Модуль загрузки панорам&lt;br&gt;&lt;/font&gt;" style="rounded=0;whiteSpace=wrap;html=1;" parent="35-sww-V_7elQmEUT7xG-1" vertex="1">
          <mxGeometry x="270.5" y="100" width="200" height="100" as="geometry" />
        </mxCell>
        <mxCell id="35-sww-V_7elQmEUT7xG-16" style="edgeStyle=orthogonalEdgeStyle;rounded=0;orthogonalLoop=1;jettySize=auto;html=1;exitX=0.75;exitY=0;exitDx=0;exitDy=0;entryX=0.75;entryY=1;entryDx=0;entryDy=0;" parent="35-sww-V_7elQmEUT7xG-1" source="35-sww-V_7elQmEUT7xG-14" target="35-sww-V_7elQmEUT7xG-6" edge="1">
          <mxGeometry relative="1" as="geometry" />
        </mxCell>
        <mxCell id="35-sww-V_7elQmEUT7xG-14" value="&lt;font style=&quot;font-size: 18px;&quot;&gt;Модуль взаимодействия с Kinect&lt;br&gt;&lt;/font&gt;" style="rounded=0;whiteSpace=wrap;html=1;" parent="35-sww-V_7elQmEUT7xG-1" vertex="1">
          <mxGeometry x="270.5" y="490" width="200" height="100" as="geometry" />
        </mxCell>
        <mxCell id="35-sww-V_7elQmEUT7xG-11" value="&lt;font style=&quot;font-size: 18px;&quot;&gt;Пользовательский интерфейс&lt;/font&gt;" style="rounded=0;whiteSpace=wrap;html=1;" parent="35-sww-V_7elQmEUT7xG-1" vertex="1">
          <mxGeometry x="7.5" y="340" width="200" height="100" as="geometry" />
        </mxCell>
        <mxCell id="35-sww-V_7elQmEUT7xG-19" style="edgeStyle=orthogonalEdgeStyle;rounded=0;orthogonalLoop=1;jettySize=auto;html=1;exitX=0;exitY=0.5;exitDx=0;exitDy=0;entryX=1;entryY=0.75;entryDx=0;entryDy=0;" parent="35-sww-V_7elQmEUT7xG-1" source="35-sww-V_7elQmEUT7xG-6" target="35-sww-V_7elQmEUT7xG-11" edge="1">
          <mxGeometry relative="1" as="geometry" />
        </mxCell>
        <mxCell id="35-sww-V_7elQmEUT7xG-20" style="edgeStyle=orthogonalEdgeStyle;rounded=0;orthogonalLoop=1;jettySize=auto;html=1;exitX=1;exitY=0.25;exitDx=0;exitDy=0;entryX=0;entryY=0.25;entryDx=0;entryDy=0;" parent="35-sww-V_7elQmEUT7xG-1" source="35-sww-V_7elQmEUT7xG-11" target="35-sww-V_7elQmEUT7xG-12" edge="1">
          <mxGeometry relative="1" as="geometry" />
        </mxCell>
      </root>
    </mxGraphModel>
  </diagram>
</mxfile>
